<svg width="16" height="26" fill="none" xmlns="http://www.w3.org/2000/svg"><path fill-rule="evenodd" clip-rule="evenodd" d="M7.963 0C4.843 0 2.27 2.522 2.27 5.674c0 3.11 2.53 5.674 5.692 5.674a5.66 5.66 0 005.692-5.674C13.655 2.522 11.083 0 7.963 0zm0 7.565a1.886 1.886 0 01-1.898-1.891c0-1.05.844-1.891 1.898-1.891 1.054 0 1.897.84 1.897 1.89a1.886 1.886 0 01-1.897 1.892zm2.445 9.205c1.56-.253 3.12-.799 4.554-1.598a1.9 1.9 0 00.759-2.521c-.464-.883-1.603-1.22-2.488-.715-3.247 1.765-7.252 1.765-10.456-.042-.886-.504-2.024-.21-2.53.673-.506.924-.211 2.017.674 2.521 1.392.799 2.952 1.303 4.512 1.598l-4.385 5.463c-.506.63-.548 1.682-.084 2.312.379.504.927.757 1.475.757s1.054-.21 1.434-.673l4.047-5.001 4.09 5.001c.76.967 2.277.925 2.994-.168.464-.672.337-1.555-.169-2.186l-4.427-5.421z" fill="#FA6400"/></svg>