<svg width="31" height="19" fill="none" xmlns="http://www.w3.org/2000/svg"><path d="M29.784.794h-5.03c-.42 0-.804.237-1.002.616 0 0-2.006 3.799-2.65 5.078-1.734 3.442-2.857 2.362-2.857.764V1.744c0-.958-.756-1.735-1.688-1.735h-3.782a2.998 2.998 0 00-2.677 1.277s1.92-.32 1.92 2.34c0 .66.034 2.558.064 4.15.011.48-.27.918-.704 1.095-.435.177-.93.056-1.242-.302a34.15 34.15 0 01-3.82-7.141 1.058 1.058 0 00-.964-.634H.782a.77.77 0 00-.641.34.817.817 0 00-.092.737c1.387 3.913 7.366 16.212 14.19 16.212h2.871c.627 0 1.135-.522 1.135-1.166v-1.783c0-.457.264-.87.672-1.052a1.092 1.092 0 011.207.216l3.437 3.321a1.64 1.64 0 001.14.464h4.515c2.177 0 2.177-1.553.99-2.755-.836-.846-3.85-4.112-3.85-4.112a1.635 1.635 0 01-.12-2.08 1508.27 1508.27 0 003.244-4.401c.924-1.264 2.596-3.94.304-3.94z" fill="#0577FF"/></svg>