<svg width="26" height="36" fill="none" xmlns="http://www.w3.org/2000/svg"><path fill-rule="evenodd" clip-rule="evenodd" d="M13 0c7.18 0 13 5.689 13 12.706v10.588C26 30.311 20.18 36 13 36S0 30.311 0 23.294V12.706C0 5.689 5.82 0 13 0zm0 2C7.028 2 2.167 6.615 2.004 12.368L2 12.667v10.666C2 29.224 6.925 34 13 34c5.972 0 10.833-4.615 10.996-10.368l.004-.299V12.667C24 6.776 19.075 2 13 2zm.818 13.606v2.835l.37-.371.937-.942.693-.696.09-.092 1.217-1.222v2.438l-2.093 2.094-.845.845-1.181 1.183-1.188-1.186-.844-.841-2.099-2.095v-2.438l1.216 1.22.097.097.687.69.943.945.37.371V9.678h1.63v5.928z" fill="#fff"/></svg>