<svg width="53" height="43" fill="none" xmlns="http://www.w3.org/2000/svg"><path opacity=".503" fill-rule="evenodd" clip-rule="evenodd" d="M10.657 0C14.9 0 18.34 3.428 18.34 7.655s-3.44 7.654-7.682 7.654c-4.241 0-7.68-3.427-7.68-7.654S6.415 0 10.656 0zm31.686 0c4.242 0 7.678 3.428 7.678 7.655s-3.437 7.654-7.678 7.654c-4.243 0-7.68-3.427-7.68-7.654S38.1 0 42.342 0zM26.5 23.388A29.16 29.16 0 00.861 38.608a2.968 2.968 0 001.202 4.033 2.99 2.99 0 004.045-1.198A23.197 23.197 0 0126.5 29.334a23.2 23.2 0 0120.393 12.11 2.988 2.988 0 004.045 1.195 2.968 2.968 0 001.2-4.03A29.16 29.16 0 0026.5 23.388z" fill="#fff"/></svg>