<svg width="43" height="69" fill="none" xmlns="http://www.w3.org/2000/svg"><path fill-rule="evenodd" clip-rule="evenodd" d="M39.416 12.861l-8.548-5.273h3.275a7.903 7.903 0 007.587-6.02 1.266 1.266 0 00-.227-1.087 1.265 1.265 0 00-1.037-.48H22.762a5.058 5.058 0 00-5.058 5.058H13.91C13.771 5.059 0 5.261 0 22.763a44.93 44.93 0 002.53 14.276 31.487 31.487 0 011.719 8.486c.017 1.167-.055 7.35-.215 8.506a26.695 26.695 0 01-.632 3.187 3.794 3.794 0 003.642 4.805 3.793 3.793 0 001.808-.455 3.793 3.793 0 001.846-2.327c.42-1.552.729-3.133.923-4.73.253-1.78.304-8.599.152-10.39a40.317 40.317 0 00-2.036-9.294 38.266 38.266 0 01-2.15-12.064c0-9.7 5.729-10.117 6.323-10.117h5.058v3.275a10.116 10.116 0 00-6.322 9.37v39.16c0 .198.048.393.139.57.265.53 2.01 3.224 9.977 3.224 7.967 0 9.712-2.694 9.977-3.225.09-.176.138-.371.14-.569v-39.16a10.116 10.116 0 00-6.323-9.37V13.76l14.302 8.852a1.264 1.264 0 001.125.101c.373-.146.654-.46.759-.847.544-2.1.556-6.614-3.326-9.004zM15.175 7.588h2.693a4.604 4.604 0 000 2.53h-2.693v-2.53zm5.058 1.265a2.53 2.53 0 115.058 0 2.53 2.53 0 01-5.058 0zm18.31-6.323a5.058 5.058 0 01-4.4 2.529h-8.068a4.944 4.944 0 00-5.766-.607 2.53 2.53 0 012.453-1.922h15.782zM8.27 58.583a1.264 1.264 0 11-2.428-.708c.215-.796.38-1.542.506-2.276h2.53c-.115.949-.33 1.935-.608 2.985zm1.05-13.058v.113c0 .76 0 6.547-.063 7.33a.279.279 0 010 .102h-2.53c.07-.841.092-6.702.064-7.545H9.32zM5.058 22.763c.062 4.36.831 8.682 2.276 12.797a44.018 44.018 0 011.796 7.435H6.601a41.362 41.362 0 00-1.657-6.689A42.843 42.843 0 012.53 22.763c0-11.988 7.145-14.505 10.117-15.036v2.53c-2.53.556-7.588 2.82-7.588 12.506zM30.35 38.317a26.062 26.062 0 01-7.587.885 26.128 26.128 0 01-7.587-.885V33.36c2.488.563 5.036.827 7.587.784a31.9 31.9 0 007.587-.784v4.957zm-7.587 27.399c-5.286 0-7.12-1.265-7.587-1.695V40.947c2.488.564 5.036.827 7.587.784 2.551.043 5.099-.22 7.587-.784v23.049c-.518.455-2.364 1.72-7.587 1.72zm7.587-40.424v5.437a26.062 26.062 0 01-7.587.886 26.128 26.128 0 01-7.587-.886v-5.437a7.587 7.587 0 0115.174 0zm-8.852-10.028v-1.53a4.604 4.604 0 002.53 0v1.53c-.42-.055-.842-.085-1.265-.089-.423.004-.845.034-1.265.089zm5.716-4.072a4.882 4.882 0 00.607-2.34v-.176l10.28 6.322a5.058 5.058 0 012.366 4.363l-13.253-8.169z" fill="#A5FF14"/></svg>