<svg width="66" height="60" fill="none" xmlns="http://www.w3.org/2000/svg"><path fill-rule="evenodd" clip-rule="evenodd" d="M59.69 30.701l-53.413-.135.113 3.199 53.3-.175V30.7zM34.432 4.634c-.02 1.8.004 1.537-.018 3.337-.006.505-.114 1.01-.18 1.556-.543.05-.984.118-1.426.122-.364.004-.728-.069-1.26-.124-.184-1.437-.066-2.852-.106-4.258-.04-1.477.115-.217-.13-1.73-.995-.303-1.895-.217-2.774-.19-.941.03-1.94-.261-2.914.375-.021.736-.059.789-.06 1.53-.007 3.823.002 5.586-.01 9.41 0 .578-.075 1.156-.118 1.772-1.001.251-1.85.363-2.736-.127-.319-2.25.093-4.5-.271-6.873-.525.205-.957.303-1.312.525-6.006 3.745-9.561 9.148-10.783 16.1-.072.41.038.85.062 1.25 2.104.348 25.959.473 43.015.237.586-.008 1.17-.086 1.731-.13.785-6.059-6.35-16.668-11.966-17.824-.356 2.27.188 4.598-.319 6.883-.986.168-1.853.391-2.763-.312v-2.19c0-3.824.007-5.586-.01-9.41-.002-.573-.12-.457-.2-1.171-1.312-.022-2.496-.054-3.68-.051-.506 0-1.01.074-1.62.123-.06.699-.146.59-.153 1.17zm28.02 23.115l.571 5.973s1.618.13 2.47.2c.512.866.373 1.706.143 2.563-.285.082-.493.196-.702.196-21.266.013-42.531.017-63.797.015-.287 0-.574-.093-.948-.158-.275-.818-.203-1.601-.077-2.53l2.695-.324.282-5.774s2.659-.039 3.97-.614c.138-.64.313-1.353.447-2.075 1.531-8.251 5.99-14.394 13.291-18.492.52-.293 1.047-.576 1.71-.94.024-1.212.131.27.058-.986C22.398 1.958 23.809.24 27.052.337c3.89.118 7.787.028 11.68.03.375 0 .753-.017 1.123.023 1.963.218 3.095 1.409 3.196 3.404.048.972.001-.114.017.86.01.592.059.497.088 1.044 8.868 4.57 13.905 11.355 15.48 21.615 1.178.55 3.816.436 3.816.436zm-21.075-6.75c.253 1.111.317 1.906-.073 2.83-1.394.195-2.806.07-4.207.092-1.421.022-2.844.005-4.266.005-1.422 0-2.845.034-4.266-.01-1.402-.042-2.826.207-4.2-.19-.325-.871-.272-1.673-.026-2.625 1.808-.325 3.672-.114 5.518-.15 1.945-.04 3.891-.019 5.837-.006 1.856.01 3.715-.054 5.683.053zM53.671 51.94c0 .894-.639 1.653-1.522 1.8L39.353 56.7a1.33 1.33 0 01-1.52-.986l-1.26-4.812a4.085 4.085 0 00-7.902 0l-1.26 4.812a1.333 1.333 0 01-1.521.985l-12.796-2.96a1.82 1.82 0 01-1.522-1.799V43.6h42.099v8.34zm2.742-10.596s-.307-.322-.506-.482H9.538a9.83 9.83 0 01-.582.51c-.012.253-.04.504-.066.757v.927c-.001.294-.031.58-.058.867v8.017a4.548 4.548 0 002.945 4.264l2.923.585 10.736 2.612a4.061 4.061 0 004.63-2.994l1.258-4.813a1.342 1.342 0 012.597 0l1.26 4.812a4.056 4.056 0 003.934 3.053c.23 0 .461-.02.694-.058l11.223-2.694 2.954-.741a4.538 4.538 0 002.428-4.024V41.344z" fill="#A5FF14"/></svg>