<svg width="54" height="63" fill="none" xmlns="http://www.w3.org/2000/svg"><path fill-rule="evenodd" clip-rule="evenodd" d="M30.911 37.824c.009-1.932.26-3.577-.143-5.212-.27-.072-.461-.168-.654-.17a458.156 458.156 0 00-6.442.004c-.242.002-.482.166-.81.288.095 1.674-.283 3.33.258 5.02.76.025 1.423.063 2.085.067 1.807.009 3.613.003 5.706.003zM22.98 52.337c.9.484 1.79.259 2.645.292.873.034 1.749.033 2.623 0 .85-.032 1.738.188 2.604-.288.15-1.683.275-3.332-.08-4.953-1.865-.32-6.16-.296-7.75.046-.294 1.622-.236 3.268-.042 4.903zm-20.044 6.95c.273.036.594.117.915.118 6.865.007 13.73.006 20.596-.004.315 0 .63-.105 1.013-.174.099-1.346.24-2.584-.134-3.907-1.162-.031-2.231-.021-3.294-.098-1.12-.08-1.688-.672-1.798-1.795-.064-.654-.076-1.313-.11-1.948-.31-.11-.496-.231-.681-.232-5.25-.015-10.5-.02-15.75-.017-.256 0-.512.09-.734.13-.43 1.553-.448 6.101-.023 7.926zm30.716-7.908c-.041.825-.043 1.494-.113 2.157-.105.996-.684 1.571-1.683 1.682-.466.052-.939.02-1.409.04-.655.026-1.311.064-2.047.101-.26 1.355-.21 2.587-.056 3.877.361.07.615.16.868.16 7.05 0 14.1-.006 21.151-.02.189-.001.376-.116.549-.173.385-1.681.372-6.259-.024-7.808-.17-.05-.356-.152-.543-.152a5486.27 5486.27 0 00-15.713-.016c-.258 0-.515.078-.98.152zM2.686 36.638c0 3.877-.003 7.575.012 11.274 0 .17.173.339.286.546.263.041.525.116.786.117 5.114.006 10.229.009 15.343-.004.317-.002.634-.133.971-.209.047-.33.1-.59.117-.854.022-.336-.005-.675.024-1.01.109-1.237.662-1.79 1.916-1.891.47-.038.942-.003 1.413-.024.59-.026 1.18-.076 1.82-.118.243-1.365.316-2.598-.05-3.862-.467-.038-.864-.085-1.263-.099-.538-.018-1.078.016-1.615-.02-1.57-.105-2.133-.686-2.232-2.253-.033-.519-.076-1.036-.112-1.532-.317-.1-.502-.21-.69-.21a4949.88 4949.88 0 00-15.747-.014c-.255 0-.51.082-.979.163zM33.65 48.337c1.465.47 2.882.203 4.274.245 1.476.046 2.955.011 4.432.011 1.41 0 2.822.025 4.231-.007 1.454-.033 2.925.15 4.342-.129.105-.327.215-.513.216-.699.014-3.426.02-6.852.014-10.279 0-.258-.102-.515-.201-.982-1.926-.081-3.858-.033-5.787-.04-1.88-.01-3.761-.035-5.64.006-1.923.041-3.862-.192-5.825.177-.053.352-.106.606-.124.863-.022.335.003.673-.026 1.007-.105 1.217-.66 1.82-1.886 1.947-.732.076-1.477.014-2.213.056-.375.02-.745.132-1.154.21-.06 1.305-.205 2.486.101 3.698.35.062.607.138.865.146.806.027 1.614-.011 2.417.047 1.238.09 1.771.657 1.872 1.918.048.595.062 1.193.092 1.805zm.045-14.646c2.066.162 3.943.069 5.814.085 1.95.017 3.9.03 5.85-.004 1.858-.033 3.73.157 5.565-.136.098-.286.215-.473.217-.661.022-1.816.014-3.632.037-5.448.008-.675-.328-1.12-.816-1.532-3.042-2.576-5.108-5.852-6.749-9.437-1.695-3.702-2.68-7.594-3.15-11.629-.083-.722-.015-1.491-.57-2.161-1.019-.16-2.07-.17-2.984-.01-.224.219-.348.296-.41.408-2.154 3.803-4.338 7.588-6.435 11.422-1.21 2.214-1.808 4.627-1.822 7.164-.014 2.219-.013 4.44-.002 6.659.003.384.088.767.14 1.193.363.057.618.123.874.133.538.021 1.076.008 1.614.016 2.162.033 2.597.447 2.705 2.551.02.396.069.789.122 1.387zM21.334 4.61c.255.564.414.994.635 1.39 1.083 1.938 2.19 3.862 3.268 5.803.216.389.613.74.4 1.357-.596.397-1.204.899-2.09 1.006l-6.534-11.49c-1.148.052-2.203-.17-3.358.207-.118.732-.217 1.458-.353 2.177-.4 2.113-.658 4.268-1.252 6.325-1.63 5.644-4.165 10.794-8.734 14.707-.512.439-.685.96-.68 1.597.012 1.683-.003 3.366.023 5.049.005.307.152.612.242.956.435.033.762.079 1.09.079 4.978.005 9.957.008 14.935-.006.383 0 .765-.126 1.173-.197.042-.416.085-.746.107-1.075.02-.337-.007-.677.034-1.01.121-.982.713-1.588 1.688-1.7.466-.054.94-.017 1.412-.035.656-.024 1.312-.061 2.077-.1.05-.562.126-1.014.129-1.466.015-1.75.032-3.5.001-5.25-.069-3.865.858-7.457 2.803-10.8 1.252-2.151 2.454-4.331 3.664-6.507.145-.262.197-.574.332-.98-1.945.26-3.726.686-5.505.68-1.777-.005-3.553-.442-5.508-.715zM11.356.023c2.14 0 4.023-.04 5.9.024.58.02 1.163.286 1.724.494 1.324.491 2.617 1.068 3.955 1.514 2.636.878 5.302.867 7.938-.005 1.275-.422 2.511-.963 3.77-1.435.563-.21 1.131-.52 1.71-.551a43.622 43.622 0 014.44-.013c1.268.061 1.747.565 1.955 1.891.198 1.264.331 2.537.5 3.805.61 4.597 2.05 8.912 4.42 12.904 1.212 2.04 2.633 3.924 4.518 5.388 1.171.908 1.615 2.019 1.61 3.491-.037 10.308-.02 20.617-.021 30.925 0 .336.006.677-.036 1.009-.168 1.33-1.144 2.366-2.475 2.565-.594.089-1.208.063-1.814.063-15.015.002-30.03.002-45.046 0-.538 0-1.08.023-1.614-.03-1.543-.154-2.603-1.208-2.759-2.733-.048-.467-.028-.942-.028-1.413V28c0-.404.007-.808.01-1.212.004-.936.386-1.71 1.085-2.3C7.02 19.501 9.49 12.804 10.566 5.412l.79-5.39z" fill="#A5FF14"/></svg>