<svg width="56" height="63" fill="none" xmlns="http://www.w3.org/2000/svg"><path fill-rule="evenodd" clip-rule="evenodd" d="M10.498 51.484c-.21-3.364-2.589-5.717-6.35-6.317-.083 1.904.057 3.722.71 5.49 1.828.642 3.642.669 5.64.828zm-6.637 2.339c-.775 1.046-.921 2.236-.876 3.397.21.199.301.357.421.386.71.17 1.423.358 2.145.451 3.956.515 7.876.792 11.693-.892 1.85-.817 3.862-.878 5.835-.33 1.412.394 2.814.83 4.2 1.31 2.883.996 5.825 1.37 8.88 1.223 5.142-.25 10.235-.913 15.327-1.592.34-.045.662-.224.946-.324.13-2.082.092-2.211-1.136-3.835-2.315.292-4.708.613-7.104.892-3.5.408-7.005.762-10.539.755-2.074-.004-4.096-.281-6.066-.932-1.254-.415-2.503-.843-3.76-1.246-1.812-.58-3.595-.587-5.37.199-1.771.783-3.654 1.077-5.582 1.097-2.204.023-4.401-.014-6.584-.409-.775-.14-1.57-.395-2.43-.15zM26.37 4.384c-1.773.181-5.572 1.462-6.983 2.365-.266 2.227.124 4.513-.231 6.781-.911.4-1.74.325-2.588.086l-.386-1.959c-2.647.168-8.584 1.276-10.232 1.903-.013.197-.061.413-.034.62.294 2.26.659 4.511.888 6.777.388 3.816.502 7.644-.218 11.432-.397 2.09-1.026 4.134-1.513 6.208-.247 1.056-.607 2.103-.56 3.264 1.145.45 2.279.784 3.299 1.33 1.024.55 2.046 1.2 2.866 2.012.819.81 1.496 1.819 2.03 2.848.527 1.017.796 2.168 1.187 3.285.547-.037.995-.008 1.411-.108.712-.171 1.426-.37 2.098-.652 2.422-1.018 4.864-.996 7.33-.227 1.122.35 2.229.746 3.346 1.112 2.042.67 4.136 1.05 6.287.953 4.995-.223 9.965-.732 14.904-1.519.411-.065.81-.211 1.31-.346.012-1.135.085-2.16.02-3.175-.153-2.378-1.464-3.983-3.773-4.569-.918-.232-1.894-.22-2.831-.39-1.316-.24-2.276.34-3.128 1.23-.885.927-1.47 2.013-1.71 3.276-.15.781-.288 1.565-.445 2.428-.56.052-1.06.119-1.564.136-.277.01-.556-.065-.919-.112-.509-2.943.735-5.322 2.214-7.663-1.827-.732-3.555-1.353-5.218-2.111-1.688-.77-3.189-1.877-4.352-3.32-1.136-1.412-2.105-2.959-3.14-4.437-6.918 1.49-6.941 1.494-8.886.971-.09-.775-.236-1.564.18-2.428.777-.087 1.585-.135 2.375-.275a107.26 107.26 0 004.53-.898c.402-.088.766-.342 1.207-.547-.112-.848.128-1.664-.521-2.385-2.546.43-5.02 1.178-7.756.95-.084-.967-.244-1.798.134-2.745.527-.052 1.032-.07 1.526-.154 1.736-.292 3.471-.585 5.197-.928.404-.08.77-.353 1.15-.536.078-.865.348-1.647-.14-2.492-2.588.458-5.128 1.213-7.747.924-.282-1.51-.287-1.51.136-2.666 2.72-.308 5.504-.463 7.977-1.63.867-5.515 1.427-11.121 1.273-12.619zM16.299 8.32c.03-.697.113-1.353.077-2.003-.076-1.408.623-2.174 1.901-2.584 2.169-.696 4.322-1.434 6.483-2.148.837-.277 1.678-.54 2.516-.811 1.521-.492 2.804.801 2.56 2.318a171.52 171.52 0 00-.949 6.544c-.635 5.183-1.148 10.377-1.05 15.609.018 1.025.08 2.062.258 3.07.78 4.412 3.333 7.425 7.416 9.17 3.072 1.31 6.294 1.966 9.621 2.185 1.017.067 2.054.213 3.023.511 3.103.955 5.492 3.924 5.29 7.303-.03.512.021 1.03-.007 1.543-.073 1.346.09 2.57.933 3.743.863 1.201 1.203 2.67 1.258 4.17.074 2.06-.793 3.185-2.81 3.537a87.257 87.257 0 01-4.58.658c-4.449.536-8.894 1.09-13.387 1.155-2.752.04-5.412-.356-8.007-1.26-1.248-.436-2.5-.863-3.771-1.224-1.662-.472-3.362-.565-4.972.139-3.56 1.556-7.284 1.604-11.044 1.284a33.77 33.77 0 01-4.35-.68c-2.046-.45-2.793-1.508-2.7-3.628.07-1.561.383-3.083 1.199-4.425.493-.811.634-1.576.45-2.502-.73-3.665-.508-7.315.328-10.936a70.22 70.22 0 011.044-4.054c.82-2.776 1.12-5.61 1.126-8.493.008-4.133-.467-8.215-1.168-12.278-.038-.217-.112-.427-.147-.645-.306-1.831.196-2.651 1.98-3.005 2.377-.473 4.768-.868 7.154-1.292 1.085-.193 2.174-.361 3.255-.575.345-.068.67-.244 1.07-.396z" fill="#A5FF14"/></svg>