<svg width="40" height="40" fill="none" xmlns="http://www.w3.org/2000/svg"><path fill-rule="evenodd" clip-rule="evenodd" d="M36 22h-8v-8h6a2 2 0 012 2v6zm0 8h-1.558c-1.098-1.22-2.672-2-4.442-2-.706 0-1.372.144-2 .368V26h8v4zm-6 6c-1.102 0-2-.898-2-2 0-1.102.898-2 2-2 1.102 0 2 .898 2 2 0 1.102-.898 2-2 2zm-6-26v20h-5.032c-.892-3.444-3.994-6-7.718-6a7.92 7.92 0 00-5.574 2.284c-.624.612-1.676.148-1.676-.726V6a2 2 0 012-2h16a2 2 0 012 2v4zm-9.306 24c-.694 1.19-1.97 2-3.444 2s-2.75-.81-3.444-2a3.956 3.956 0 01-.556-2c0-.732.212-1.41.556-2 .694-1.19 1.97-2 3.444-2s2.75.81 3.444 2c.344.59.556 1.268.556 2s-.212 1.41-.556 2zM36 10h-8V4c0-2.21-1.79-4-4-4H4C1.79 0 0 1.79 0 4v26.468A3.533 3.533 0 003.532 34c.894 3.444 3.994 6 7.718 6 3.724 0 6.824-2.556 7.718-6H24a6 6 0 1012 0c2.21 0 4-1.79 4-4V14c0-2.21-1.79-4-4-4z" fill="#A5FF14"/></svg>