<svg width="23" height="32" fill="none" xmlns="http://www.w3.org/2000/svg"><path fill-rule="evenodd" clip-rule="evenodd" d="M21.125 21.508a4.112 4.112 0 00-5.763-1.551l-.77.463a50.75 50.75 0 01-2.808-4.543 50.647 50.647 0 01-2.393-4.925l.872-.53c1.98-1.2 2.661-3.79 1.552-5.838L10.471 2.16A4.128 4.128 0 004.718.59L1.776 2.376C-1.541 4.398.033 12.1 4.468 20.167c4.482 8.13 10.098 13.455 13.516 11.385l.077-.052c.08-.055.145-.1.223-.15a3.86 3.86 0 01.146-.07l.149-.079 2.336-1.416c1.985-1.224 2.662-3.808 1.547-5.865l-1.337-2.412zm-4.211 1.017a1.114 1.114 0 011.582.43l1.337 2.411c.348.65.13 1.482-.484 1.86l-2.258 1.369a17.57 17.57 0 00-.27.13l-.193.089-.16.138a1.645 1.645 0 01-.116.084c-1.035.623-5.622-3.727-9.255-10.315-1.896-3.45-3.248-6.926-3.817-9.71-.485-2.368-.303-3.853.057-4.072l2.928-1.78c.555-.33 1.257-.137 1.577.448l1.34 2.419c.346.636.128 1.465-.477 1.831l-1.96 1.194-1.07.651.45 1.169a52.396 52.396 0 003.03 6.454 52.146 52.146 0 003.823 5.988l.812 1.09 3.124-1.878z" fill="#fff"/></svg>