<svg width="20" height="20" fill="none" xmlns="http://www.w3.org/2000/svg"><path fill-rule="evenodd" clip-rule="evenodd" d="M18.146.539l1.63 1.8a.757.757 0 010 1.075L18.174 5l-2.716-2.875L17.06.539a.776.776 0 011.086 0zM1.92 18.143h14.16v-8.58l1.92-2V18.41c0 .887-.739 1.589-1.646 1.589H1.646C.739 20 0 19.299 0 18.411V4.59C0 3.722.739 3 1.646 3h10.466l-1.92 1.877H1.92v13.266zM14.584 3L9.14 8.634l2.798 2.888 5.444-5.634L14.584 3zm-7.611 7.815a.781.781 0 00-.217.345l-.733 2.987c-.136.494.353.938.923.84l2.778-1.162a.796.796 0 00.38-.198l.896-.815L7.869 10l-.896.815z" fill="#A7B6CB"/></svg>