<svg width="295" height="43" fill="none" xmlns="http://www.w3.org/2000/svg"><path fill-rule="evenodd" clip-rule="evenodd" d="M18.25 35c4.567 0 8.117-.992 10.65-2.975 2.533-1.983 3.8-4.742 3.8-8.275 0-3.367-1.133-5.95-3.4-7.75-2.267-1.8-5.517-2.7-9.75-2.7H10.5V7.65H25L30 0H.75v35h17.5zm-7.75-7.1v-7.55h7.1c3.4 0 5.1 1.233 5.1 3.7 0 1.233-.433 2.183-1.3 2.85-.867.667-2.133 1-3.8 1h-7.1zm37.2-2.05V35h-9.9V0h16c3.167 0 5.917.525 8.25 1.575 2.333 1.05 4.133 2.55 5.4 4.5 1.267 1.95 1.9 4.242 1.9 6.875s-.633 4.917-1.9 6.85c-1.267 1.933-3.067 3.425-5.4 4.475-2.333 1.05-5.083 1.575-8.25 1.575h-6.1zm0-7.8V7.8h5.5c2.033 0 3.567.45 4.6 1.35 1.033.9 1.55 2.167 1.55 3.8s-.517 2.892-1.55 3.775-2.567 1.325-4.6 1.325h-5.5zm49.85-3.55L83.15 35H73.8V0h9.75v20.55L98 0h9.3v35h-9.75V14.5zm27 20.5V7.85h11.85L140.45 0H114.8v35h9.75zm22.8-6.8L144.6 35h-10.1l15.45-35h9.75l15.5 35h-10.3l-2.75-6.8h-14.8zm2.9-7.3l4.5-11.2 4.5 11.2h-9zm35.5 14.1v7.05h-4.1l-5-14.9h1.25c2.067-.033 3.525-1.45 4.375-4.25.85-2.8 1.375-6.833 1.575-12.1l.4-10.8h28.2v27.15h4.75v14.9h-9.05V35h-22.4zm16.95-7.85h-13.25c.967-1.4 1.683-3.4 2.15-6 .467-2.6.767-5.767.9-9.5l.15-3.8h10.05v19.3zm43-12.65L231.3 35h-9.35V0h9.75v20.55L246.15 0h9.3v35h-9.75V14.5zM272.85 35v-9.15h6.1c3.167 0 5.917-.525 8.25-1.575 2.333-1.05 4.133-2.542 5.4-4.475 1.267-1.933 1.9-4.217 1.9-6.85s-.633-4.925-1.9-6.875c-1.267-1.95-3.067-3.45-5.4-4.5C284.867.525 282.117 0 278.95 0h-16v35h9.9zm0-27.2v10.25h5.5c2.033 0 3.567-.442 4.6-1.325 1.033-.883 1.55-2.142 1.55-3.775s-.517-2.9-1.55-3.8c-1.033-.9-2.567-1.35-4.6-1.35h-5.5z" fill="#fff"/></svg>