<svg width="585" height="509" fill="none" xmlns="http://www.w3.org/2000/svg"><path opacity=".068" fill-rule="evenodd" clip-rule="evenodd" d="M460.765 414.655c-18.881 14.046-46.476 21.06-82.785 21.06H247.265V275.233H377.98c74.071 0 111.107 26.137 111.107 78.422 0 26.627-9.441 46.967-28.322 61zM550.087 0H154.313v508.334h228.75c64.377 0 114.012-13.673 148.869-41.027 34.857-27.347 52.286-66.195 52.286-116.55 0-47.935-15.864-84.605-47.569-110.021-31.71-25.423-78.062-38.129-139.062-38.129H247.265V77.703h233.452L550.087 0zM.666 1.96v69.572h69.088l.006-69.571H.666zM.664 220.236h69.094v-69.572H.664v69.572zm0 139.762v-69.565h69.094l-.006 69.565H.665zM0 502.537h69.088v-69.572H0v69.572z" fill="#fff"/></svg>