<svg width="30" height="24" fill="none" xmlns="http://www.w3.org/2000/svg"><path fill-rule="evenodd" clip-rule="evenodd" d="M0 2.526h6.03L10.395 16h16.068L30 4.525H9.305L7.84 0H0v2.526zm24.627 10.948H12.205l-2.081-6.422h16.482l-1.98 6.422zm-7.146 7.579c0 1.627-1.304 2.947-2.913 2.947-1.61 0-2.914-1.32-2.914-2.947 0-1.628 1.305-2.948 2.914-2.948 1.609 0 2.913 1.32 2.913 2.948zM23.724 24c1.61 0 2.914-1.32 2.914-2.947 0-1.628-1.305-2.948-2.914-2.948-1.609 0-2.913 1.32-2.913 2.948 0 1.627 1.304 2.947 2.913 2.947z" fill="#fff"/></svg>