<svg width="75" height="49" fill="none" xmlns="http://www.w3.org/2000/svg"><path fill-rule="evenodd" clip-rule="evenodd" d="M73.645.685c.437.437.683 1.03.685 1.648V42a2.342 2.342 0 01-2.333 2.333v2.334h2.333V49h-7v-2.333h2.333v-2.334A2.342 2.342 0 0167.33 42V7H55.997v3.022c.275.09.538.216.781.373l4.667 3.115a3.473 3.473 0 011.552 2.905v19.252A2.342 2.342 0 0160.663 38H13.997a2.342 2.342 0 01-2.334-2.333V16.415a3.493 3.493 0 011.564-2.917l4.667-3.103a3.4 3.4 0 01.77-.385V7H7.33v35a2.342 2.342 0 01-2.333 2.333v2.334H7.33V49h-7v-2.333h2.333v-2.334A2.342 2.342 0 01.33 42V2.333A2.342 2.342 0 012.663 0h2.334A2.342 2.342 0 017.33 2.333v2.334h60V2.333A2.342 2.342 0 0169.664 0h2.333c.618.002 1.21.248 1.648.685zM2.663 42h2.334V2.333H2.663V42zM48.997 7h4.666v3.022a3.131 3.131 0 00-.77.373l-1.563 1.038-1.552-1.038a3.426 3.426 0 00-.781-.373V7zm-2.334 0h-4.666v3.022c.275.09.538.216.781.373l1.552 1.038 1.564-1.038c.238-.16.497-.285.77-.373V7zM34.997 7h4.666v3.022a3.133 3.133 0 00-.77.373l-1.563 1.038-1.552-1.038a3.423 3.423 0 00-.781-.373V7zm-2.334 0h-4.666v3.022c.275.09.538.216.781.373l1.552 1.038 1.564-1.038c.238-.16.497-.285.77-.373V7zM20.997 7h4.666v3.022a3.131 3.131 0 00-.77.373l-1.563 1.038-1.564-1.038a3.403 3.403 0 00-.77-.385V7zm-7 28.667h11.666V16.415a1.166 1.166 0 00-.525-.969l-4.666-3.115a1.137 1.137 0 00-1.284 0l-4.666 3.115a1.166 1.166 0 00-.525.969v19.252zm25.666 0h-4.666v-10h-2.334v10h-4.666V16.415a3.49 3.49 0 00-1.564-2.917l-1.003-.665.758-.502a1.184 1.184 0 011.295 0l4.667 3.115c.318.22.51.582.513.969v6.918h2.334v-6.918a3.473 3.473 0 00-1.552-2.906l-1.015-.676.758-.502a1.184 1.184 0 011.295 0l4.667 3.115c.318.22.51.582.513.969v19.252zm2.334 0h4.666V16.415a1.193 1.193 0 00-.513-.969l-4.667-3.115a1.184 1.184 0 00-1.295 0l-.758.502 1.015.676a3.474 3.474 0 011.552 2.906v19.252zm18.153-20.22c.318.22.51.58.514.968v19.252h-4.667V31h-2.333v4.667h-4.667V16.415a3.473 3.473 0 00-1.552-2.905l-1.015-.677.758-.502a1.185 1.185 0 011.295 0l4.667 3.116c.318.22.51.58.514.968v12.252h2.333V16.415a3.474 3.474 0 00-1.552-2.905l-1.015-.677.758-.502a1.17 1.17 0 011.284 0l4.678 3.116zm9.514-13.114V42h2.333V2.333h-2.333zM16.33 18.667h2.333V31H16.33V18.667zm8.167-2.334h-3.5v2.334h3.5v-2.334z" fill="#A5FF14"/></svg>