<svg width="51" height="44" fill="none" xmlns="http://www.w3.org/2000/svg"><path fill-rule="evenodd" clip-rule="evenodd" d="M24.162.148l19.14 30.695h-6.006a8.793 8.793 0 01-7.54-4.27L19.159 8.904 24.162.148zm13.134 28.74h2.484L24.235 3.958 21.423 8.88 31.43 25.567a6.84 6.84 0 005.734 3.32l.131.002zm13.335 13.855l-36.82.271 3.094-5.147a8.793 8.793 0 017.544-4.265l20.602.017 5.58 9.124zm-32.051-3.87l-1.28 2.13 30.027-.16-3.421-5.271-19.459-.016a6.839 6.839 0 00-5.799 3.206l-.068.111zm-.937-27.502L.631 43.294l10.085-.045 10.002-18.011a8.793 8.793 0 00-.072-8.666l-3.003-5.2zm.068 4.027l1.243 2.151.064.114a6.839 6.839 0 01-.008 6.626L9.563 41.3l-5.67.026 13.818-25.928z" fill="#A5FF14"/></svg>