<svg width="54" height="53" fill="none" xmlns="http://www.w3.org/2000/svg"><path fill-rule="evenodd" clip-rule="evenodd" d="M26.54 1.113L27 .875l1.04.542c8.723 4.611 18.93 12.033 24.697 18.31l.332.363-.234 1.344-.304 1.691-.308 1.655-.313 1.62-.159.796-.321 1.567-.328 1.531c-.055.253-.11.504-.166.753l-.337 1.48-.344 1.447c-1.623 6.672-3.49 12.251-5.793 16.913l-.016-.009c-.032.176-.09.232-.214.32l-.208.136-.136.059-.099.03-.149.035-.35.069-.57.098-.595.094-.805.116-.876.116-.938.112-.49.055c-3.668.4-7.744.63-12.01.602a105.533 105.533 0 01-12.512-.657l-.938-.112-.875-.116-.806-.116-.594-.094-.397-.067-.433-.081-.208-.046-.13-.038-.137-.058-.054-.033-.175-.12a.405.405 0 01-.193-.304l-.016.009c-2.304-4.662-4.17-10.241-5.793-16.913l-.344-1.446-.337-1.48-.166-.754-.327-1.531-.162-.78-.318-1.583-.314-1.62-.308-1.655-.304-1.69-.234-1.345.333-.363c3.844-4.185 9.662-8.879 15.698-12.909l1.21-.797c2.827-1.837 5.675-3.513 8.368-4.908zm.58 2.08L27 3.128l-.703.375c-8.01 4.32-17.194 10.969-22.77 16.739l-.457.477.213 1.199.302 1.65.306 1.614.155.794.314 1.561.159.768.322 1.509.163.742.332 1.457.168.716.342 1.408c1.496 6.024 3.198 11.11 5.247 15.375l.027.055.232.041.825.133.78.113.852.112.914.11.478.053c3.595.392 7.595.617 11.805.59a103.568 103.568 0 0012.271-.643l.914-.11.851-.112.781-.113.362-.056.694-.118.263-.551c1.945-4.162 3.573-9.086 5.012-14.88l.342-1.407.168-.716.332-1.457.163-.742.322-1.51.16-.767.313-1.561.155-.794.306-1.614.302-1.65.212-1.199-.455-.477C44.76 14.333 35.264 7.5 27.119 3.193zM4.915 23.055l.462-1.937.756.107 2.213.3 2.127.276 2.04.248 1.314.151 1.274.14 1.84.187 1.178.11 1.14.1 1.102.087 1.064.075 1.025.064.986.053.949.04.91.03.871.017.833.006c.323 0 .654-.003.99-.009l1.033-.024.531-.019 1.094-.05.562-.03 1.155-.075.593-.043 1.217-.1a124.32 124.32 0 002.556-.248l1.34-.149c.453-.052.914-.107 1.38-.165l1.422-.182 1.463-.199.747-.105 1.523-.224 1.565-.24.798-.126.503 1.926-19.69 7.232 13.106 15.367-1.403 1.415-12.473-10.45-13.117 11.437-1.423-1.396L26.21 30.289 4.915 23.056zm9.963 1.272l12.107 4.112 11.06-4.06-1.221.134c-3.534.373-6.641.571-9.323.594L27 25.11c-.304 0-.615-.003-.934-.007l-.98-.022a83.96 83.96 0 01-1.024-.035l-1.07-.05-1.117-.063c-.19-.011-.381-.024-.575-.037l-1.185-.084-.61-.048-1.253-.105-.643-.059-1.322-.126-1.408-.146zm12.127 8.124l-4.736 5.64 4.717-4.112 4.634 3.885-4.615-5.413z" fill="#A5FF14"/></svg>