<svg width="51" height="50" fill="none" xmlns="http://www.w3.org/2000/svg"><path fill-rule="evenodd" clip-rule="evenodd" d="M32.416 3.127h-1.032V1.042C31.384.463 30.921 0 30.342 0c-.58 0-1.043.463-1.043 1.042v2.085h-1.052c-.58 0-1.042.463-1.042 1.043v3.115H4.295a4.172 4.172 0 00-4.17 4.17v9.37c0 .05.004.1.01.149v4.02c0 .58.464 1.043 1.043 1.043h2.085v2.084c0 .58.463 1.043 1.042 1.043h1.042v3.117c0 .579.463 1.042 1.042 1.042.569 0 1.043-.463 1.043-1.042v-3.117h1.032a1.06 1.06 0 001.052-1.043v-2.084h2.074c.58 0 1.043-.463 1.043-1.042v-3.127H30.33v12.497H1.178c-.58 0-1.043.463-1.043 1.042v9.371c0 .578.464 1.042 1.043 1.042h1.448l1.795 3.59c.169.359.537.58.927.58h39.566c.4 0 .758-.221.926-.58l1.795-3.59h1.448c.579 0 1.042-.464 1.042-1.043v-9.37c0-.58-.463-1.042-1.042-1.042h-3.127V18.75h1.568c1.432 0 2.6-1.168 2.6-2.6v-3.127c0-1.432-1.168-2.6-2.6-2.6h-1.568V8.327c0-.58-.464-1.043-1.043-1.043h-3.116V4.17c0-.58-.464-1.043-1.043-1.043h-1.041V1.042C39.712.463 39.248 0 38.67 0s-1.042.463-1.042 1.042v2.085h-1.043c-.58 0-1.042.463-1.042 1.043v3.115h-2.084V4.17c0-.58-.464-1.043-1.043-1.043zm-9.36 16.656h8.329c.579 0 1.042.463 1.042 1.042l-.01 13.54H43.87V9.37H4.305a2.09 2.09 0 00-2.084 2.085v8.328h4.168v-3.127c0-.578.464-1.042 1.043-1.042h14.581c.58 0 1.043.463 1.043 1.043v3.126zm-2.095 0H8.464v-2.084H20.96v2.084zm-13.55 2.085H2.22v2.085h8.328v-2.085H7.412zm13.016 21.867H48.04v-7.286H2.22v3.117h9.37c3.415 0 6.678 1.553 8.837 4.169zm-18.207 0V41.65h9.37c2.148 0 4.233.758 5.886 2.085H2.22zm4.17-16.666c.048 0 .097.004.144.01h.898v-1.042H5.347v1.042h.897a1.08 1.08 0 01.145-.01zm41.124-10.402h-1.558v-4.16h1.558c.284 0 .516.232.516.517v3.127a.517.517 0 01-.516.515zm-7.802-9.382V5.212h-2.085v2.073h2.085zm-8.328 0H29.3V5.212h2.084v2.073zM5.99 47.905h38.282l1.042-2.085H4.948l1.042 2.085zM34.5 26.563a3.644 3.644 0 003.644 3.643c2.01 0 3.653-1.642 3.642-3.643a3.644 3.644 0 00-7.285 0zm2.085-.01c0-.853.695-1.559 1.559-1.559.863 0 1.568.706 1.558 1.559 0 .853-.695 1.558-1.558 1.558a1.568 1.568 0 01-1.559-1.558z" fill="#A5FF14"/></svg>