<svg width="26" height="36" viewBox="0 0 26 36" fill="none" xmlns="http://www.w3.org/2000/svg">
<path fill-rule="evenodd" clip-rule="evenodd" d="M13 0C20.1797 0 26 5.68862 26 12.7059V23.2941C26 30.3114 20.1797 36 13 36C5.8203 36 0 30.3114 0 23.2941V12.7059C0 5.68862 5.8203 0 13 0ZM13 2C7.02784 2 2.16728 6.61512 2.00423 12.3681L2 12.6667V23.3333C2 29.2244 6.92487 34 13 34C18.9722 34 23.8327 29.3849 23.9958 23.6319L24 23.3333V12.6667C24 6.77563 19.0751 2 13 2ZM13.8176 15.606V18.0363V18.4412L14.1875 18.0695L15.125 17.1275L15.8176 16.4317L15.9084 16.3404L17.125 15.118V17.5563L15.0323 19.6502L14.1875 20.4954L13.0058 21.6777L11.8176 20.4921L10.9741 19.6507L8.875 17.5563V15.118L10.0908 16.3377L10.1875 16.4347L10.875 17.1245L11.8176 18.07L12.1875 18.4412V18.036V15.6082V11.6777V9.67768H13.8176V11.6777V15.606Z" fill="white"/>
</svg>
