<svg width="14" height="19" viewBox="0 0 14 19" fill="none" xmlns="http://www.w3.org/2000/svg">
<path fill-rule="evenodd" clip-rule="evenodd" d="M14 7C14 8.30676 13.6419 9.52989 13.0186 10.5766H13.0303L12.9691 10.6583C12.7437 11.0254 12.4854 11.37 12.1982 11.6882L6.93962 18.7134L1.78781 11.6727C0.676178 10.4335 0 8.79573 0 7C0 3.13401 3.13401 0 7 0C10.866 0 14 3.13401 14 7ZM7 9.91667C8.61083 9.91667 9.91667 8.61083 9.91667 7C9.91667 5.38917 8.61083 4.08333 7 4.08333C5.38917 4.08333 4.08333 5.38917 4.08333 7C4.08333 8.61083 5.38917 9.91667 7 9.91667Z" fill="#D8D8D8"/>
</svg>
