<svg width="12" height="16" viewBox="0 0 12 16" fill="none" xmlns="http://www.w3.org/2000/svg">
<path fill-rule="evenodd" clip-rule="evenodd" d="M12 5.98502C12 7.10231 11.6931 8.14809 11.1588 9.04304H11.1688L11.1164 9.11291C10.9232 9.42672 10.7017 9.7214 10.4556 9.99343L5.94824 16L1.53241 9.98018C0.579581 8.92071 0 7.52038 0 5.98502C0 2.67959 2.68629 0 6 0C9.31371 0 12 2.67959 12 5.98502ZM6 8.47878C7.38071 8.47878 8.5 7.36229 8.5 5.98502C8.5 4.60776 7.38071 3.49126 6 3.49126C4.61929 3.49126 3.5 4.60776 3.5 5.98502C3.5 7.36229 4.61929 8.47878 6 8.47878Z" fill="white"/>
</svg>
