<svg width="585" height="509" viewBox="0 0 585 509" fill="none" xmlns="http://www.w3.org/2000/svg">
<path opacity="0.0684524" fill-rule="evenodd" clip-rule="evenodd" d="M460.765 414.655C441.884 428.701 414.289 435.715 377.98 435.715H247.265V275.233H377.98C452.051 275.233 489.087 301.37 489.087 353.655C489.087 380.282 479.646 400.622 460.765 414.655ZM550.087 0H154.313V508.334H383.063C447.44 508.334 497.075 494.661 531.932 467.307C566.789 439.96 584.218 401.112 584.218 350.757C584.218 302.822 568.354 266.152 536.649 240.736C504.939 215.313 458.587 202.607 397.587 202.607H247.265V77.7025H480.717L550.087 0ZM0.665986 1.96072V71.5323H69.7535L69.7597 1.96072H0.665986ZM0.664124 220.235H69.7578V150.663H0.664124V220.235ZM0.664745 359.997V290.432H69.7585L69.7523 359.997H0.664745ZM0 502.537H69.0875V432.965H0V502.537Z" fill="white"/>
</svg>
